<?xml version="1.0" encoding="utf-8"?>
<!-- Uploaded to: SVG Repo, www.svgrepo.com, Generator: SVG Repo Mixer Tools -->
<svg fill="#000000" width="32px" height="32px" viewBox="-7 0 32 32" version="1.1" xmlns="http://www.w3.org/2000/svg">
<title>bitbucket</title>
<path d="M17.68 8.4c-0.040-1-1.040-1.76-2.96-2.28-1.56-0.44-3.68-0.68-5.88-0.68s-4.28 0.24-5.88 0.68c-1.92 0.52-2.92 1.28-2.96 2.28 0 0 0 0.28 0.040 0.4l2.16 15.28c0.080 1.84 3.64 2.48 6.64 2.48 3.040 0 6.56-0.64 6.64-2.48l2.16-15.28c0-0.12 0.040-0.4 0.040-0.4zM14.56 18.4c-0.36 0.36-2.36 1.080-5.72 1.080s-5.4-0.68-5.72-1.080l-1.12-7.88c0.28 0.12 0.6 0.2 0.96 0.32 1.56 0.44 3.68 0.68 5.88 0.68s4.28-0.24 5.88-0.68c0.36-0.080 0.68-0.2 0.96-0.32l-1.12 7.88zM8.84 7.16c4 0 6.56 0.8 7.080 1.32-0.52 0.52-3.080 1.32-7.080 1.32s-6.56-0.8-7.080-1.32c0.48-0.52 3.080-1.32 7.080-1.32zM13.8 23.88c-0.32 0.36-2.040 0.96-4.96 0.96s-4.64-0.64-4.96-0.96v0l-0.48-3.48c2.040 0.72 4.96 0.72 5.44 0.72s3.4-0.040 5.44-0.72l-0.48 3.48zM8.84 12.6c-1.56 0-2.8 1.24-2.8 2.8s1.24 2.8 2.8 2.8 2.8-1.24 2.8-2.8c0-1.52-1.28-2.8-2.8-2.8zM8.84 16.48c-0.6 0-1.080-0.48-1.080-1.080s0.48-1.080 1.080-1.080 1.080 0.48 1.080 1.080-0.48 1.080-1.080 1.080z"></path>
</svg>