<?xml version="1.0"?>
<svg xmlns="http://www.w3.org/2000/svg" viewBox="0 0 50 50">
    <path style="line-height:normal;text-indent:0;text-align:start;text-decoration-line:none;text-decoration-style:solid;text-decoration-color:#000;text-transform:none;block-progression:tb;isolation:auto;mix-blend-mode:normal" d="M 25 2 C 19.394363 2 14.32628 2.6324641 10.578125 3.703125 C 8.7040476 4.2384554 7.1582483 4.8768535 6.0058594 5.6621094 C 4.8534704 6.4473652 4 7.47298 4 8.7402344 L 4 8.8417969 L 4.1328125 9.4921875 L 7.0117188 28.152344 C 7.0709206 29.301278 7.7790718 30.285995 8.7558594 31.072266 C 8.9845461 31.256348 9.2356267 31.431228 9.4980469 31.601562 L 11.068359 42.757812 L 11.058594 42.617188 C 11.058594 43.634625 11.681862 44.476364 12.490234 45.107422 C 13.298607 45.73848 14.3545 46.239192 15.609375 46.660156 C 17.977143 47.454454 21.088552 47.90832 24.423828 47.960938 L 24.423828 48 L 25 48 L 25 47.960938 C 28.335189 47.908298 31.446739 47.454436 33.814453 46.660156 C 35.069328 46.239192 36.125221 45.73848 36.933594 45.107422 C 37.703886 44.506091 38.298655 43.711473 38.353516 42.757812 L 39.873047 31.970703 C 40.375163 31.689513 40.843512 31.394754 41.244141 31.072266 C 42.220928 30.285995 42.929079 29.301278 42.988281 28.152344 L 42.988281 28.146484 L 45.867188 9.4921875 L 46 8.8417969 L 46 8.7402344 C 46 7.47298 45.14653 6.4473652 43.994141 5.6621094 C 42.841752 4.8768535 41.295952 4.2384554 39.421875 3.703125 C 35.67372 2.6324641 30.605637 2 25 2 z M 25 4 C 30.453363 4 35.385952 4.630864 38.873047 5.6269531 C 40.616594 6.1249977 41.997545 6.7218652 42.867188 7.3144531 C 43.723574 7.8980087 43.974439 8.3790832 43.982422 8.71875 L 43.898438 9.1386719 L 41 27.923828 L 41 28 C 41 28.392086 40.742032 28.910462 39.990234 29.515625 C 39.238437 30.120788 38.051428 30.73796 36.564453 31.261719 C 33.590504 32.309237 29.427024 33 25 33 C 20.572976 33 16.409496 32.309237 13.435547 31.261719 C 11.948572 30.73796 10.761563 30.120788 10.009766 29.515625 C 9.2579681 28.910462 9 28.392086 9 28 L 9 27.923828 L 6.1015625 9.1386719 L 6.0175781 8.71875 C 6.0255606 8.3790832 6.2764254 7.8980087 7.1328125 7.3144531 C 8.0024548 6.7218652 9.3834057 6.1249977 11.126953 5.6269531 C 14.614048 4.630864 19.546637 4 25 4 z M 25 5 C 21.078431 5 17.520128 5.3791134 14.867188 6.0351562 C 13.540717 6.3631777 12.443289 6.7520254 11.59375 7.2558594 C 10.744211 7.7596934 10 8.4757578 10 9.5 C 10 10.524242 10.744211 11.240307 11.59375 11.744141 C 12.443289 12.247975 13.540717 12.636822 14.867188 12.964844 C 17.520128 13.620887 21.078431 14 25 14 C 28.921569 14 32.479872 13.620887 35.132812 12.964844 C 36.459283 12.636822 37.556711 12.247975 38.40625 11.744141 C 39.255789 11.240307 40 10.524242 40 9.5 C 40 8.4757578 39.255789 7.7596934 38.40625 7.2558594 C 37.556711 6.7520254 36.459283 6.3631777 35.132812 6.0351562 C 32.479872 5.3791133 28.921569 5 25 5 z M 25 7 C 28.790431 7 32.233284 7.3783555 34.652344 7.9765625 C 35.861874 8.275666 36.816257 8.6382402 37.386719 8.9765625 C 37.95718 9.3148848 38 9.5327422 38 9.5 C 38 9.467258 37.95718 9.6851147 37.386719 10.023438 C 36.816257 10.361759 35.861874 10.724334 34.652344 11.023438 C 32.233284 11.621644 28.790431 12 25 12 C 21.209569 12 17.766716 11.621645 15.347656 11.023438 C 14.138126 10.724334 13.183743 10.361759 12.613281 10.023438 C 12.04282 9.6851147 12 9.4672578 12 9.5 C 12 9.532742 12.04282 9.3148848 12.613281 8.9765625 C 13.183743 8.6382402 14.138126 8.275666 15.347656 7.9765625 C 17.766716 7.3783555 21.209569 7 25 7 z M 25 18 C 21.64 18 19 20.64 19 24 C 19 27.36 21.64 30 25 30 C 28.36 30 31 27.36 31 24 C 31 20.64 28.36 18 25 18 z M 25 21 C 26.657 21 28 22.343 28 24 C 28 25.657 26.657 27 25 27 C 23.343 27 22 25.657 22 24 C 22 22.343 23.343 21 25 21 z M 11.675781 32.726562 C 12.026887 32.872867 12.390317 33.014178 12.771484 33.148438 C 16.032785 34.29717 20.368024 35 25 35 C 29.631976 35 33.967215 34.29717 37.228516 33.148438 C 37.397726 33.088836 37.551447 33.022864 37.714844 32.960938 L 36.363281 42.548828 L 36.363281 42.617188 C 36.363281 42.804749 36.236659 43.114745 35.703125 43.53125 C 35.169591 43.947755 34.290484 44.392339 33.177734 44.765625 C 31.018664 45.489913 27.972515 45.952362 24.710938 45.980469 C 21.450133 45.952179 18.402761 45.489762 16.244141 44.765625 C 15.131391 44.392339 14.254237 43.947755 13.720703 43.53125 C 13.187169 43.114745 13.058594 42.804749 13.058594 42.617188 L 13.058594 42.548828 L 11.675781 32.726562 z" font-weight="400" font-family="sans-serif" white-space="normal" overflow="visible"/>
</svg>
